<mxfile host="app.diagrams.net" agent="Mozilla/5.0 (Windows NT 10.0; Win64; x64) AppleWebKit/537.36 (KHTML, like Gecko) Chrome/133.0.0.0 Safari/537.36" version="26.1.0">
  <diagram name="Sayfa -1" id="OlcEJ11TsuJs7PYuceSy">
    <mxGraphModel dx="2415" dy="984" grid="1" gridSize="10" guides="1" tooltips="1" connect="1" arrows="1" fold="1" page="1" pageScale="1" pageWidth="827" pageHeight="1169" math="0" shadow="0">
      <root>
        <mxCell id="0" />
        <mxCell id="1" parent="0" />
        <mxCell id="XbgHrM-P70FyimILTvBb-38" style="edgeStyle=orthogonalEdgeStyle;rounded=0;orthogonalLoop=1;jettySize=auto;html=1;entryX=0.5;entryY=1;entryDx=0;entryDy=0;" edge="1" parent="1" source="XbgHrM-P70FyimILTvBb-1" target="XbgHrM-P70FyimILTvBb-11">
          <mxGeometry relative="1" as="geometry" />
        </mxCell>
        <mxCell id="XbgHrM-P70FyimILTvBb-39" style="edgeStyle=orthogonalEdgeStyle;rounded=0;orthogonalLoop=1;jettySize=auto;html=1;entryX=0;entryY=0.5;entryDx=0;entryDy=0;" edge="1" parent="1" source="XbgHrM-P70FyimILTvBb-1" target="XbgHrM-P70FyimILTvBb-8">
          <mxGeometry relative="1" as="geometry" />
        </mxCell>
        <mxCell id="XbgHrM-P70FyimILTvBb-40" style="edgeStyle=orthogonalEdgeStyle;rounded=0;orthogonalLoop=1;jettySize=auto;html=1;entryX=0.5;entryY=0;entryDx=0;entryDy=0;" edge="1" parent="1" source="XbgHrM-P70FyimILTvBb-1" target="XbgHrM-P70FyimILTvBb-5">
          <mxGeometry relative="1" as="geometry" />
        </mxCell>
        <mxCell id="XbgHrM-P70FyimILTvBb-41" style="edgeStyle=orthogonalEdgeStyle;rounded=0;orthogonalLoop=1;jettySize=auto;html=1;" edge="1" parent="1" source="XbgHrM-P70FyimILTvBb-1" target="XbgHrM-P70FyimILTvBb-7">
          <mxGeometry relative="1" as="geometry" />
        </mxCell>
        <mxCell id="XbgHrM-P70FyimILTvBb-42" style="edgeStyle=orthogonalEdgeStyle;rounded=0;orthogonalLoop=1;jettySize=auto;html=1;" edge="1" parent="1" source="XbgHrM-P70FyimILTvBb-1" target="XbgHrM-P70FyimILTvBb-10">
          <mxGeometry relative="1" as="geometry" />
        </mxCell>
        <mxCell id="XbgHrM-P70FyimILTvBb-43" style="edgeStyle=orthogonalEdgeStyle;rounded=0;orthogonalLoop=1;jettySize=auto;html=1;entryX=1;entryY=0.5;entryDx=0;entryDy=0;" edge="1" parent="1" source="XbgHrM-P70FyimILTvBb-1" target="XbgHrM-P70FyimILTvBb-76">
          <mxGeometry relative="1" as="geometry">
            <mxPoint x="-660" y="85" as="targetPoint" />
          </mxGeometry>
        </mxCell>
        <mxCell id="XbgHrM-P70FyimILTvBb-45" value="M" style="edgeStyle=orthogonalEdgeStyle;rounded=0;orthogonalLoop=1;jettySize=auto;html=1;entryX=0;entryY=0.5;entryDx=0;entryDy=0;" edge="1" parent="1" source="XbgHrM-P70FyimILTvBb-1" target="XbgHrM-P70FyimILTvBb-44">
          <mxGeometry relative="1" as="geometry" />
        </mxCell>
        <mxCell id="XbgHrM-P70FyimILTvBb-69" value="1" style="edgeStyle=orthogonalEdgeStyle;rounded=0;orthogonalLoop=1;jettySize=auto;html=1;entryX=0;entryY=0.5;entryDx=0;entryDy=0;" edge="1" parent="1" source="XbgHrM-P70FyimILTvBb-1" target="XbgHrM-P70FyimILTvBb-68">
          <mxGeometry relative="1" as="geometry" />
        </mxCell>
        <mxCell id="XbgHrM-P70FyimILTvBb-1" value="Ev" style="rounded=0;whiteSpace=wrap;html=1;" vertex="1" parent="1">
          <mxGeometry x="-603" y="200" width="190" height="50" as="geometry" />
        </mxCell>
        <mxCell id="XbgHrM-P70FyimILTvBb-60" style="edgeStyle=orthogonalEdgeStyle;rounded=0;orthogonalLoop=1;jettySize=auto;html=1;entryX=0.5;entryY=1;entryDx=0;entryDy=0;" edge="1" parent="1" source="XbgHrM-P70FyimILTvBb-2" target="XbgHrM-P70FyimILTvBb-36">
          <mxGeometry relative="1" as="geometry" />
        </mxCell>
        <mxCell id="XbgHrM-P70FyimILTvBb-61" style="edgeStyle=orthogonalEdgeStyle;rounded=0;orthogonalLoop=1;jettySize=auto;html=1;entryX=0;entryY=0.5;entryDx=0;entryDy=0;" edge="1" parent="1" source="XbgHrM-P70FyimILTvBb-2" target="XbgHrM-P70FyimILTvBb-35">
          <mxGeometry relative="1" as="geometry" />
        </mxCell>
        <mxCell id="XbgHrM-P70FyimILTvBb-65" style="edgeStyle=orthogonalEdgeStyle;rounded=0;orthogonalLoop=1;jettySize=auto;html=1;entryX=0.5;entryY=0;entryDx=0;entryDy=0;" edge="1" parent="1" source="XbgHrM-P70FyimILTvBb-2" target="XbgHrM-P70FyimILTvBb-33">
          <mxGeometry relative="1" as="geometry" />
        </mxCell>
        <mxCell id="XbgHrM-P70FyimILTvBb-66" style="edgeStyle=orthogonalEdgeStyle;rounded=0;orthogonalLoop=1;jettySize=auto;html=1;entryX=0.5;entryY=0;entryDx=0;entryDy=0;" edge="1" parent="1" source="XbgHrM-P70FyimILTvBb-2" target="XbgHrM-P70FyimILTvBb-34">
          <mxGeometry relative="1" as="geometry" />
        </mxCell>
        <mxCell id="XbgHrM-P70FyimILTvBb-67" style="edgeStyle=orthogonalEdgeStyle;rounded=0;orthogonalLoop=1;jettySize=auto;html=1;entryX=1;entryY=0.5;entryDx=0;entryDy=0;" edge="1" parent="1" source="XbgHrM-P70FyimILTvBb-2" target="XbgHrM-P70FyimILTvBb-37">
          <mxGeometry relative="1" as="geometry" />
        </mxCell>
        <mxCell id="XbgHrM-P70FyimILTvBb-2" value="Kira Sözleşmesi" style="rounded=0;whiteSpace=wrap;html=1;" vertex="1" parent="1">
          <mxGeometry x="260" y="610" width="190" height="50" as="geometry" />
        </mxCell>
        <mxCell id="XbgHrM-P70FyimILTvBb-53" style="edgeStyle=orthogonalEdgeStyle;rounded=0;orthogonalLoop=1;jettySize=auto;html=1;entryX=1;entryY=0.5;entryDx=0;entryDy=0;" edge="1" parent="1" source="XbgHrM-P70FyimILTvBb-3" target="XbgHrM-P70FyimILTvBb-30">
          <mxGeometry relative="1" as="geometry" />
        </mxCell>
        <mxCell id="XbgHrM-P70FyimILTvBb-54" style="edgeStyle=orthogonalEdgeStyle;rounded=0;orthogonalLoop=1;jettySize=auto;html=1;entryX=0.5;entryY=1;entryDx=0;entryDy=0;" edge="1" parent="1" source="XbgHrM-P70FyimILTvBb-3" target="XbgHrM-P70FyimILTvBb-31">
          <mxGeometry relative="1" as="geometry" />
        </mxCell>
        <mxCell id="XbgHrM-P70FyimILTvBb-55" style="edgeStyle=orthogonalEdgeStyle;rounded=0;orthogonalLoop=1;jettySize=auto;html=1;entryX=0.5;entryY=1;entryDx=0;entryDy=0;" edge="1" parent="1" source="XbgHrM-P70FyimILTvBb-3" target="XbgHrM-P70FyimILTvBb-32">
          <mxGeometry relative="1" as="geometry" />
        </mxCell>
        <mxCell id="XbgHrM-P70FyimILTvBb-56" style="edgeStyle=orthogonalEdgeStyle;rounded=0;orthogonalLoop=1;jettySize=auto;html=1;entryX=0;entryY=0.5;entryDx=0;entryDy=0;" edge="1" parent="1" source="XbgHrM-P70FyimILTvBb-3" target="XbgHrM-P70FyimILTvBb-28">
          <mxGeometry relative="1" as="geometry" />
        </mxCell>
        <mxCell id="XbgHrM-P70FyimILTvBb-57" style="edgeStyle=orthogonalEdgeStyle;rounded=0;orthogonalLoop=1;jettySize=auto;html=1;entryX=0.5;entryY=0;entryDx=0;entryDy=0;" edge="1" parent="1" source="XbgHrM-P70FyimILTvBb-3" target="XbgHrM-P70FyimILTvBb-24">
          <mxGeometry relative="1" as="geometry" />
        </mxCell>
        <mxCell id="XbgHrM-P70FyimILTvBb-58" style="edgeStyle=orthogonalEdgeStyle;rounded=0;orthogonalLoop=1;jettySize=auto;html=1;entryX=0.5;entryY=0;entryDx=0;entryDy=0;" edge="1" parent="1" source="XbgHrM-P70FyimILTvBb-3" target="XbgHrM-P70FyimILTvBb-26">
          <mxGeometry relative="1" as="geometry" />
        </mxCell>
        <mxCell id="XbgHrM-P70FyimILTvBb-74" value="1" style="edgeStyle=orthogonalEdgeStyle;rounded=0;orthogonalLoop=1;jettySize=auto;html=1;entryX=0.5;entryY=1;entryDx=0;entryDy=0;" edge="1" parent="1" source="XbgHrM-P70FyimILTvBb-3" target="XbgHrM-P70FyimILTvBb-73">
          <mxGeometry relative="1" as="geometry" />
        </mxCell>
        <mxCell id="XbgHrM-P70FyimILTvBb-3" value="Kiraci" style="rounded=0;whiteSpace=wrap;html=1;" vertex="1" parent="1">
          <mxGeometry x="-603" y="620" width="190" height="50" as="geometry" />
        </mxCell>
        <mxCell id="XbgHrM-P70FyimILTvBb-47" style="edgeStyle=orthogonalEdgeStyle;rounded=0;orthogonalLoop=1;jettySize=auto;html=1;entryX=0.5;entryY=0;entryDx=0;entryDy=0;" edge="1" parent="1" source="XbgHrM-P70FyimILTvBb-4" target="XbgHrM-P70FyimILTvBb-16">
          <mxGeometry relative="1" as="geometry" />
        </mxCell>
        <mxCell id="XbgHrM-P70FyimILTvBb-49" style="edgeStyle=orthogonalEdgeStyle;rounded=0;orthogonalLoop=1;jettySize=auto;html=1;entryX=0.5;entryY=0;entryDx=0;entryDy=0;" edge="1" parent="1" source="XbgHrM-P70FyimILTvBb-4" target="XbgHrM-P70FyimILTvBb-21">
          <mxGeometry relative="1" as="geometry" />
        </mxCell>
        <mxCell id="XbgHrM-P70FyimILTvBb-50" style="edgeStyle=orthogonalEdgeStyle;rounded=0;orthogonalLoop=1;jettySize=auto;html=1;entryX=0.5;entryY=1;entryDx=0;entryDy=0;" edge="1" parent="1" source="XbgHrM-P70FyimILTvBb-4" target="XbgHrM-P70FyimILTvBb-18">
          <mxGeometry relative="1" as="geometry" />
        </mxCell>
        <mxCell id="XbgHrM-P70FyimILTvBb-51" style="edgeStyle=orthogonalEdgeStyle;rounded=0;orthogonalLoop=1;jettySize=auto;html=1;entryX=0.5;entryY=0;entryDx=0;entryDy=0;" edge="1" parent="1" source="XbgHrM-P70FyimILTvBb-4" target="XbgHrM-P70FyimILTvBb-19">
          <mxGeometry relative="1" as="geometry" />
        </mxCell>
        <mxCell id="XbgHrM-P70FyimILTvBb-52" style="edgeStyle=orthogonalEdgeStyle;rounded=0;orthogonalLoop=1;jettySize=auto;html=1;entryX=0;entryY=0.5;entryDx=0;entryDy=0;" edge="1" parent="1" source="XbgHrM-P70FyimILTvBb-4" target="XbgHrM-P70FyimILTvBb-20">
          <mxGeometry relative="1" as="geometry" />
        </mxCell>
        <mxCell id="XbgHrM-P70FyimILTvBb-4" value="Ev Sahibi" style="rounded=0;whiteSpace=wrap;html=1;" vertex="1" parent="1">
          <mxGeometry x="-80" y="210" width="190" height="50" as="geometry" />
        </mxCell>
        <mxCell id="XbgHrM-P70FyimILTvBb-5" value="oda_sayisi" style="ellipse;whiteSpace=wrap;html=1;" vertex="1" parent="1">
          <mxGeometry x="-553" y="365" width="90" height="50" as="geometry" />
        </mxCell>
        <mxCell id="XbgHrM-P70FyimILTvBb-7" value="yapim_tarihi" style="ellipse;whiteSpace=wrap;html=1;" vertex="1" parent="1">
          <mxGeometry x="-730" y="340" width="90" height="50" as="geometry" />
        </mxCell>
        <mxCell id="XbgHrM-P70FyimILTvBb-8" value="kira_ucreti" style="ellipse;whiteSpace=wrap;html=1;" vertex="1" parent="1">
          <mxGeometry x="-300" y="200" width="90" height="50" as="geometry" />
        </mxCell>
        <mxCell id="XbgHrM-P70FyimILTvBb-10" value="ev_tipi" style="ellipse;whiteSpace=wrap;html=1;" vertex="1" parent="1">
          <mxGeometry x="-810" y="200" width="90" height="50" as="geometry" />
        </mxCell>
        <mxCell id="XbgHrM-P70FyimILTvBb-11" value="&lt;u&gt;ev_no&lt;/u&gt;" style="ellipse;whiteSpace=wrap;html=1;" vertex="1" parent="1">
          <mxGeometry x="-553" y="30" width="90" height="50" as="geometry" />
        </mxCell>
        <mxCell id="XbgHrM-P70FyimILTvBb-16" value="&lt;u&gt;kimlik_no&lt;/u&gt;" style="ellipse;whiteSpace=wrap;html=1;" vertex="1" parent="1">
          <mxGeometry x="-30" y="320" width="90" height="50" as="geometry" />
        </mxCell>
        <mxCell id="XbgHrM-P70FyimILTvBb-18" value="ad" style="ellipse;whiteSpace=wrap;html=1;" vertex="1" parent="1">
          <mxGeometry x="150" y="80" width="90" height="50" as="geometry" />
        </mxCell>
        <mxCell id="XbgHrM-P70FyimILTvBb-19" value="tel_no" style="ellipse;whiteSpace=wrap;html=1;" vertex="1" parent="1">
          <mxGeometry x="150" y="320" width="90" height="50" as="geometry" />
        </mxCell>
        <mxCell id="XbgHrM-P70FyimILTvBb-20" value="cinsiyet" style="ellipse;whiteSpace=wrap;html=1;" vertex="1" parent="1">
          <mxGeometry x="290" y="210" width="90" height="50" as="geometry" />
        </mxCell>
        <mxCell id="XbgHrM-P70FyimILTvBb-21" value="soyad" style="ellipse;whiteSpace=wrap;html=1;" vertex="1" parent="1">
          <mxGeometry x="-210" y="310" width="90" height="50" as="geometry" />
        </mxCell>
        <mxCell id="XbgHrM-P70FyimILTvBb-24" value="medeni_hali" style="ellipse;whiteSpace=wrap;html=1;" vertex="1" parent="1">
          <mxGeometry x="-480" y="750" width="90" height="50" as="geometry" />
        </mxCell>
        <mxCell id="XbgHrM-P70FyimILTvBb-26" value="cinsiyet" style="ellipse;whiteSpace=wrap;html=1;" vertex="1" parent="1">
          <mxGeometry x="-630" y="750" width="90" height="50" as="geometry" />
        </mxCell>
        <mxCell id="XbgHrM-P70FyimILTvBb-28" value="telefon" style="ellipse;whiteSpace=wrap;html=1;" vertex="1" parent="1">
          <mxGeometry x="-330" y="620" width="90" height="50" as="geometry" />
        </mxCell>
        <mxCell id="XbgHrM-P70FyimILTvBb-30" value="&lt;u&gt;kimlik_no&lt;/u&gt;" style="ellipse;whiteSpace=wrap;html=1;" vertex="1" parent="1">
          <mxGeometry x="-780" y="620" width="90" height="50" as="geometry" />
        </mxCell>
        <mxCell id="XbgHrM-P70FyimILTvBb-31" value="ad" style="ellipse;whiteSpace=wrap;html=1;" vertex="1" parent="1">
          <mxGeometry x="-630" y="490" width="90" height="50" as="geometry" />
        </mxCell>
        <mxCell id="XbgHrM-P70FyimILTvBb-32" value="soyad" style="ellipse;whiteSpace=wrap;html=1;" vertex="1" parent="1">
          <mxGeometry x="-470" y="490" width="90" height="50" as="geometry" />
        </mxCell>
        <mxCell id="XbgHrM-P70FyimILTvBb-33" value="kiraci_kimlik_no" style="ellipse;whiteSpace=wrap;html=1;" vertex="1" parent="1">
          <mxGeometry x="450" y="760" width="90" height="50" as="geometry" />
        </mxCell>
        <mxCell id="XbgHrM-P70FyimILTvBb-34" value="ev_no" style="ellipse;whiteSpace=wrap;html=1;" vertex="1" parent="1">
          <mxGeometry x="170" y="760" width="90" height="50" as="geometry" />
        </mxCell>
        <mxCell id="XbgHrM-P70FyimILTvBb-35" value="bitis_tarihi" style="ellipse;whiteSpace=wrap;html=1;" vertex="1" parent="1">
          <mxGeometry x="560" y="610" width="90" height="50" as="geometry" />
        </mxCell>
        <mxCell id="XbgHrM-P70FyimILTvBb-36" value="&lt;u&gt;sozlesme_no&lt;/u&gt;" style="ellipse;whiteSpace=wrap;html=1;" vertex="1" parent="1">
          <mxGeometry x="310" y="480" width="90" height="50" as="geometry" />
        </mxCell>
        <mxCell id="XbgHrM-P70FyimILTvBb-37" value="baslangic_tarihi" style="ellipse;whiteSpace=wrap;html=1;" vertex="1" parent="1">
          <mxGeometry x="60" y="610" width="90" height="50" as="geometry" />
        </mxCell>
        <mxCell id="XbgHrM-P70FyimILTvBb-46" value="N" style="edgeStyle=orthogonalEdgeStyle;rounded=0;orthogonalLoop=1;jettySize=auto;html=1;" edge="1" parent="1" source="XbgHrM-P70FyimILTvBb-44" target="XbgHrM-P70FyimILTvBb-4">
          <mxGeometry relative="1" as="geometry" />
        </mxCell>
        <mxCell id="XbgHrM-P70FyimILTvBb-44" value="Sahip olur" style="rhombus;whiteSpace=wrap;html=1;" vertex="1" parent="1">
          <mxGeometry x="-270" y="45" width="80" height="80" as="geometry" />
        </mxCell>
        <mxCell id="XbgHrM-P70FyimILTvBb-72" value="1" style="edgeStyle=orthogonalEdgeStyle;rounded=0;orthogonalLoop=1;jettySize=auto;html=1;" edge="1" parent="1" source="XbgHrM-P70FyimILTvBb-68" target="XbgHrM-P70FyimILTvBb-3">
          <mxGeometry relative="1" as="geometry">
            <mxPoint x="-390" y="650" as="targetPoint" />
          </mxGeometry>
        </mxCell>
        <mxCell id="XbgHrM-P70FyimILTvBb-68" value="kiralar" style="rhombus;whiteSpace=wrap;html=1;" vertex="1" parent="1">
          <mxGeometry x="-320" y="440" width="80" height="80" as="geometry" />
        </mxCell>
        <mxCell id="XbgHrM-P70FyimILTvBb-75" value="1" style="edgeStyle=orthogonalEdgeStyle;rounded=0;orthogonalLoop=1;jettySize=auto;html=1;entryX=0.25;entryY=0;entryDx=0;entryDy=0;" edge="1" parent="1" source="XbgHrM-P70FyimILTvBb-73" target="XbgHrM-P70FyimILTvBb-2">
          <mxGeometry relative="1" as="geometry" />
        </mxCell>
        <mxCell id="XbgHrM-P70FyimILTvBb-73" value="Yapar" style="rhombus;whiteSpace=wrap;html=1;" vertex="1" parent="1">
          <mxGeometry x="-100" y="505" width="80" height="80" as="geometry" />
        </mxCell>
        <mxCell id="XbgHrM-P70FyimILTvBb-76" value="ev_yasi" style="ellipse;whiteSpace=wrap;html=1;align=center;dashed=1;" vertex="1" parent="1">
          <mxGeometry x="-780" y="60" width="100" height="40" as="geometry" />
        </mxCell>
      </root>
    </mxGraphModel>
  </diagram>
</mxfile>
